<svg xmlns="http://www.w3.org/2000/svg" width="24" height="24" viewBox="0 0 32 32" aria-hidden="true" role="presentation" focusable="false"
     style="display: block; height: 20px; width: 20px; fill: currentcolor;">
    <path d="M10 1a1 1 0 0 1 1 .88V3h20v2h-1v22h1v2H9v1a1 1 0 0 1-1 1H2a1 1 0 0 1-1-1V2a1 1 0 0 1 .88-1H2zM3 17.1V29h4v-7.22a5 5 0 0 0-3.94-4.67zM27 24c-.5 0-.98.18-1.33.5-.72.65-1.68 1-2.67 1s-1.95-.35-2.67-1c-.35-.32-.83-.5-1.33-.5-.5 0-.98.18-1.33.5-.73.65-1.68 1-2.67 1s-1.94-.35-2.67-1c-.35-.32-.83-.5-1.33-.5a2 2 0 0 0-1.2.38l-.13.11c-.2.19-.43.35-.67.49V27h19v-2.74c-.3-.17-.64-.26-1-.26zm0-5c-.5 0-.98.18-1.33.5-.72.65-1.68 1-2.67 1s-1.95-.35-2.67-1c-.35-.32-.83-.5-1.33-.5-.5 0-.98.18-1.33.5-.73.65-1.68 1-2.67 1s-1.94-.35-2.67-1c-.35-.32-.83-.5-1.33-.5-.5 0-.98.18-1.33.5-.28.24-.6.45-.93.61A7 7 0 0 1 9 22v.52a4.04 4.04 0 0 1 4.67.49c.35.31.83.49 1.33.49.5 0 .98-.18 1.33-.5.72-.65 1.68-1 2.67-1s1.95.35 2.67 1c.35.32.83.5 1.33.5.5 0 .98-.18 1.33-.5a3.97 3.97 0 0 1 3.67-.88v-2.86c-.3-.17-.64-.26-1-.26zM11 8a9 9 0 0 1-5.17 8.14 7.02 7.02 0 0 1 2.1 2.14c.1-.05.19-.1.27-.17l.13-.1C9.06 17.35 10 17 11 17s1.95.35 2.67 1c.35.32.83.5 1.33.5.5 0 .98-.18 1.33-.5.72-.65 1.68-1 2.67-1s1.95.35 2.67 1c.35.32.83.5 1.33.5.5 0 .98-.18 1.33-.5a3.97 3.97 0 0 1 3.67-.88V5H11zM3 3v11.93l.16-.03a7 7 0 0 0 5.82-6.4L9 8.23V3zm19 5a3 3 0 1 1 0 6 3 3 0 0 1 0-6zm0 2a1 1 0 1 0 0 2 1 1 0 0 0 0-2z"></path>
</svg>